{
 "asset": {
  "version": "2.0",
  "generator": "AED model builder",
  "minVersion": "2.0"
 },
 "extensionsUsed": [],
 "extensionsRequired": [],
 "scene": 0,
 "scenes": [
  {
   "nodes": [
    0
   ]
  }
 ],
 "nodes": [
  {
   "mesh": 0,
   "name": "AED_Wreck"
  }
 ],
 "meshes": [
  {
   "name": "AED_Wreck",
   "primitives": [
    {
     "attributes": {
      "POSITION": 0,
      "NORMAL": 1
     },
     "indices": 2,
     "material": 0,
     "mode": 4
    },
    {
     "attributes": {
      "POSITION": 3,
      "NORMAL": 4
     },
     "indices": 5,
     "material": 1,
     "mode": 4
    },
    {
     "attributes": {
      "POSITION": 6,
      "NORMAL": 7
     },
     "indices": 8,
     "material": 2,
     "mode": 4
    },
    {
     "attributes": {
      "POSITION": 9,
      "NORMAL": 10
     },
     "indices": 11,
     "material": 3,
     "mode": 4
    },
    {
     "attributes": {
      "POSITION": 12,
      "NORMAL": 13
     },
     "indices": 14,
     "material": 4,
     "mode": 4
    },
    {
     "attributes": {
      "POSITION": 15,
      "NORMAL": 16
     },
     "indices": 17,
     "material": 5,
     "mode": 4
    }
   ]
  }
 ],
 "materials": [
  {
   "alphaMode": "OPAQUE",
   "name": "AED_Wreck_m0",
   "pbrMetallicRoughness": {
    "baseColorFactor": [
     0.14,
     0.14,
     0.15,
     1
    ],
    "metallicFactor": 0,
    "roughnessFactor": 0.85
   },
   "doubleSided": true
  },
  {
   "alphaMode": "OPAQUE",
   "name": "AED_Wreck_m1",
   "pbrMetallicRoughness": {
    "baseColorFactor": [
     0.4,
     0.26,
     0.16,
     1
    ],
    "metallicFactor": 0,
    "roughnessFactor": 0.85
   },
   "doubleSided": true
  },
  {
   "alphaMode": "OPAQUE",
   "name": "AED_Wreck_m2",
   "pbrMetallicRoughness": {
    "baseColorFactor": [
     0.12,
     0.16,
     0.2,
     1
    ],
    "metallicFactor": 0,
    "roughnessFactor": 0.85
   },
   "doubleSided": true
  },
  {
   "alphaMode": "OPAQUE",
   "name": "AED_Wreck_m3",
   "pbrMetallicRoughness": {
    "baseColorFactor": [
     0.32,
     0.32,
     0.34,
     1
    ],
    "metallicFactor": 0,
    "roughnessFactor": 0.85
   },
   "doubleSided": true
  },
  {
   "alphaMode": "OPAQUE",
   "name": "AED_Wreck_m4",
   "pbrMetallicRoughness": {
    "baseColorFactor": [
     0.5,
     0.5,
     0.52,
     1
    ],
    "metallicFactor": 0,
    "roughnessFactor": 0.85
   },
   "doubleSided": true
  },
  {
   "alphaMode": "OPAQUE",
   "name": "AED_Wreck_m5",
   "pbrMetallicRoughness": {
    "baseColorFactor": [
     0.08,
     0.08,
     0.09,
     1
    ],
    "metallicFactor": 0,
    "roughnessFactor": 0.85
   },
   "doubleSided": true
  }
 ],
 "buffers": [
  {
   "uri": "AED_Wreck.bin",
   "byteLength": 6480
  }
 ],
 "bufferViews": [
  {
   "buffer": 0,
   "byteOffset": 0,
   "byteLength": 576,
   "target": 34962
  },
  {
   "buffer": 0,
   "byteOffset": 576,
   "byteLength": 576,
   "target": 34962
  },
  {
   "buffer": 0,
   "byteOffset": 1152,
   "byteLength": 144,
   "target": 34963
  },
  {
   "buffer": 0,
   "byteOffset": 1296,
   "byteLength": 288,
   "target": 34962
  },
  {
   "buffer": 0,
   "byteOffset": 1584,
   "byteLength": 288,
   "target": 34962
  },
  {
   "buffer": 0,
   "byteOffset": 1872,
   "byteLength": 72,
   "target": 34963
  },
  {
   "buffer": 0,
   "byteOffset": 1944,
   "byteLength": 288,
   "target": 34962
  },
  {
   "buffer": 0,
   "byteOffset": 2232,
   "byteLength": 288,
   "target": 34962
  },
  {
   "buffer": 0,
   "byteOffset": 2520,
   "byteLength": 72,
   "target": 34963
  },
  {
   "buffer": 0,
   "byteOffset": 2592,
   "byteLength": 288,
   "target": 34962
  },
  {
   "buffer": 0,
   "byteOffset": 2880,
   "byteLength": 288,
   "target": 34962
  },
  {
   "buffer": 0,
   "byteOffset": 3168,
   "byteLength": 72,
   "target": 34963
  },
  {
   "buffer": 0,
   "byteOffset": 3240,
   "byteLength": 288,
   "target": 34962
  },
  {
   "buffer": 0,
   "byteOffset": 3528,
   "byteLength": 288,
   "target": 34962
  },
  {
   "buffer": 0,
   "byteOffset": 3816,
   "byteLength": 72,
   "target": 34963
  },
  {
   "buffer": 0,
   "byteOffset": 3888,
   "byteLength": 1152,
   "target": 34962
  },
  {
   "buffer": 0,
   "byteOffset": 5040,
   "byteLength": 1152,
   "target": 34962
  },
  {
   "buffer": 0,
   "byteOffset": 6192,
   "byteLength": 288,
   "target": 34963
  }
 ],
 "accessors": [
  {
   "bufferView": 0,
   "componentType": 5126,
   "count": 48,
   "type": "VEC3",
   "min": [
    -2.15,
    0.14,
    -0.91
   ],
   "max": [
    1.75,
    0.9199999999999999,
    0.91
   ]
  },
  {
   "bufferView": 1,
   "componentType": 5126,
   "count": 48,
   "type": "VEC3"
  },
  {
   "bufferView": 2,
   "componentType": 5123,
   "count": 72,
   "type": "SCALAR"
  },
  {
   "bufferView": 3,
   "componentType": 5126,
   "count": 24,
   "type": "VEC3",
   "min": [
    1,
    0.1,
    -0.83
   ],
   "max": [
    2.1,
    0.42000000000000004,
    0.83
   ]
  },
  {
   "bufferView": 4,
   "componentType": 5126,
   "count": 24,
   "type": "VEC3"
  },
  {
   "bufferView": 5,
   "componentType": 5123,
   "count": 36,
   "type": "SCALAR"
  },
  {
   "bufferView": 6,
   "componentType": 5126,
   "count": 24,
   "type": "VEC3",
   "min": [
    0.94,
    0.6,
    -0.7
   ],
   "max": [
    1.06,
    0.88,
    0.7
   ]
  },
  {
   "bufferView": 7,
   "componentType": 5126,
   "count": 24,
   "type": "VEC3"
  },
  {
   "bufferView": 8,
   "componentType": 5123,
   "count": 36,
   "type": "SCALAR"
  },
  {
   "bufferView": 9,
   "componentType": 5126,
   "count": 24,
   "type": "VEC3",
   "min": [
    1.325,
    1,
    -0.175
   ],
   "max": [
    1.675,
    2.3,
    0.175
   ]
  },
  {
   "bufferView": 10,
   "componentType": 5126,
   "count": 24,
   "type": "VEC3"
  },
  {
   "bufferView": 11,
   "componentType": 5123,
   "count": 36,
   "type": "SCALAR"
  },
  {
   "bufferView": 12,
   "componentType": 5126,
   "count": 24,
   "type": "VEC3",
   "min": [
    1.45,
    2.1,
    -0.09999999999999998
   ],
   "max": [
    2.05,
    3.3,
    0.5
   ]
  },
  {
   "bufferView": 13,
   "componentType": 5126,
   "count": 24,
   "type": "VEC3"
  },
  {
   "bufferView": 14,
   "componentType": 5123,
   "count": 36,
   "type": "SCALAR"
  },
  {
   "bufferView": 15,
   "componentType": 5126,
   "count": 96,
   "type": "VEC3",
   "min": [
    -1.6,
    0,
    -0.95
   ],
   "max": [
    2.55,
    0.5,
    1.15
   ]
  },
  {
   "bufferView": 16,
   "componentType": 5126,
   "count": 96,
   "type": "VEC3"
  },
  {
   "bufferView": 17,
   "componentType": 5123,
   "count": 144,
   "type": "SCALAR"
  }
 ]
}