{
 "asset": {
  "version": "2.0",
  "generator": "AED model builder",
  "minVersion": "2.0"
 },
 "extensionsUsed": [],
 "extensionsRequired": [],
 "scene": 0,
 "scenes": [
  {
   "nodes": [
    0,
    1,
    2,
    3
   ]
  }
 ],
 "nodes": [
  {
   "mesh": 0,
   "name": "AED_FireSeat"
  },
  {
   "name": "fx_fire",
   "translation": [
    0,
    0.3,
    -1.6
   ]
  },
  {
   "name": "fx_fire_b",
   "translation": [
    0,
    0.3,
    1.6
   ]
  },
  {
   "name": "fx_smoke",
   "translation": [
    0,
    1,
    0
   ]
  }
 ],
 "meshes": [
  {
   "name": "AED_FireSeat",
   "primitives": [
    {
     "attributes": {
      "POSITION": 0,
      "NORMAL": 1
     },
     "indices": 2,
     "material": 0,
     "mode": 4
    },
    {
     "attributes": {
      "POSITION": 3,
      "NORMAL": 4
     },
     "indices": 5,
     "material": 1,
     "mode": 4
    },
    {
     "attributes": {
      "POSITION": 6,
      "NORMAL": 7
     },
     "indices": 8,
     "material": 2,
     "mode": 4
    },
    {
     "attributes": {
      "POSITION": 9,
      "NORMAL": 10
     },
     "indices": 11,
     "material": 3,
     "mode": 4
    },
    {
     "attributes": {
      "POSITION": 12,
      "NORMAL": 13
     },
     "indices": 14,
     "material": 4,
     "mode": 4
    },
    {
     "attributes": {
      "POSITION": 15,
      "NORMAL": 16
     },
     "indices": 17,
     "material": 5,
     "mode": 4
    },
    {
     "attributes": {
      "POSITION": 18,
      "NORMAL": 19
     },
     "indices": 20,
     "material": 6,
     "mode": 4
    },
    {
     "attributes": {
      "POSITION": 21,
      "NORMAL": 22
     },
     "indices": 23,
     "material": 7,
     "mode": 4
    },
    {
     "attributes": {
      "POSITION": 24,
      "NORMAL": 25
     },
     "indices": 26,
     "material": 8,
     "mode": 4
    },
    {
     "attributes": {
      "POSITION": 27,
      "NORMAL": 28
     },
     "indices": 29,
     "material": 9,
     "mode": 4
    },
    {
     "attributes": {
      "POSITION": 30,
      "NORMAL": 31
     },
     "indices": 32,
     "material": 10,
     "mode": 4
    }
   ]
  }
 ],
 "materials": [
  {
   "alphaMode": "OPAQUE",
   "name": "AED_FireSeat_m0",
   "pbrMetallicRoughness": {
    "baseColorFactor": [
     0.14,
     0.14,
     0.15,
     1
    ],
    "metallicFactor": 0,
    "roughnessFactor": 0.85
   },
   "doubleSided": true
  },
  {
   "alphaMode": "OPAQUE",
   "name": "AED_FireSeat_m1",
   "pbrMetallicRoughness": {
    "baseColorFactor": [
     0.85,
     0.28,
     0.04,
     1
    ],
    "metallicFactor": 0,
    "roughnessFactor": 1
   },
   "doubleSided": true,
   "emissiveFactor": [
    1,
    0.44800000000000006,
    0.064
   ]
  },
  {
   "alphaMode": "OPAQUE",
   "name": "AED_FireSeat_m2",
   "pbrMetallicRoughness": {
    "baseColorFactor": [
     0.78,
     0.06,
     0.06,
     1
    ],
    "metallicFactor": 0,
    "roughnessFactor": 1
   },
   "doubleSided": true,
   "emissiveFactor": [
    1,
    0.108,
    0.108
   ]
  },
  {
   "alphaMode": "OPAQUE",
   "name": "AED_FireSeat_m3",
   "pbrMetallicRoughness": {
    "baseColorFactor": [
     0.98,
     0.55,
     0.04,
     1
    ],
    "metallicFactor": 0,
    "roughnessFactor": 1
   },
   "doubleSided": true,
   "emissiveFactor": [
    1,
    1,
    0.08
   ]
  },
  {
   "alphaMode": "OPAQUE",
   "name": "AED_FireSeat_m4",
   "pbrMetallicRoughness": {
    "baseColorFactor": [
     0.95,
     0.78,
     0.12,
     1
    ],
    "metallicFactor": 0,
    "roughnessFactor": 1
   },
   "doubleSided": true,
   "emissiveFactor": [
    1,
    1,
    0.264
   ]
  },
  {
   "alphaMode": "BLEND",
   "name": "AED_FireSeat_m5",
   "pbrMetallicRoughness": {
    "baseColorFactor": [
     0.16,
     0.16,
     0.17,
     0.6
    ],
    "metallicFactor": 0,
    "roughnessFactor": 0.85
   },
   "doubleSided": true
  },
  {
   "alphaMode": "BLEND",
   "name": "AED_FireSeat_m6",
   "pbrMetallicRoughness": {
    "baseColorFactor": [
     0.16,
     0.16,
     0.17,
     0.5
    ],
    "metallicFactor": 0,
    "roughnessFactor": 0.85
   },
   "doubleSided": true
  },
  {
   "alphaMode": "BLEND",
   "name": "AED_FireSeat_m7",
   "pbrMetallicRoughness": {
    "baseColorFactor": [
     0.32,
     0.32,
     0.34,
     0.42
    ],
    "metallicFactor": 0,
    "roughnessFactor": 0.85
   },
   "doubleSided": true
  },
  {
   "alphaMode": "BLEND",
   "name": "AED_FireSeat_m8",
   "pbrMetallicRoughness": {
    "baseColorFactor": [
     0.32,
     0.32,
     0.34,
     0.34
    ],
    "metallicFactor": 0,
    "roughnessFactor": 0.85
   },
   "doubleSided": true
  },
  {
   "alphaMode": "BLEND",
   "name": "AED_FireSeat_m9",
   "pbrMetallicRoughness": {
    "baseColorFactor": [
     0.5,
     0.5,
     0.52,
     0.26
    ],
    "metallicFactor": 0,
    "roughnessFactor": 0.85
   },
   "doubleSided": true
  },
  {
   "alphaMode": "BLEND",
   "name": "AED_FireSeat_m10",
   "pbrMetallicRoughness": {
    "baseColorFactor": [
     0.5,
     0.5,
     0.52,
     0.18
    ],
    "metallicFactor": 0,
    "roughnessFactor": 0.85
   },
   "doubleSided": true
  }
 ],
 "buffers": [
  {
   "uri": "AED_FireSeat.bin",
   "byteLength": 12312
  }
 ],
 "bufferViews": [
  {
   "buffer": 0,
   "byteOffset": 0,
   "byteLength": 288,
   "target": 34962
  },
  {
   "buffer": 0,
   "byteOffset": 288,
   "byteLength": 288,
   "target": 34962
  },
  {
   "buffer": 0,
   "byteOffset": 576,
   "byteLength": 72,
   "target": 34963
  },
  {
   "buffer": 0,
   "byteOffset": 648,
   "byteLength": 864,
   "target": 34962
  },
  {
   "buffer": 0,
   "byteOffset": 1512,
   "byteLength": 864,
   "target": 34962
  },
  {
   "buffer": 0,
   "byteOffset": 2376,
   "byteLength": 216,
   "target": 34963
  },
  {
   "buffer": 0,
   "byteOffset": 2592,
   "byteLength": 864,
   "target": 34962
  },
  {
   "buffer": 0,
   "byteOffset": 3456,
   "byteLength": 864,
   "target": 34962
  },
  {
   "buffer": 0,
   "byteOffset": 4320,
   "byteLength": 216,
   "target": 34963
  },
  {
   "buffer": 0,
   "byteOffset": 4536,
   "byteLength": 864,
   "target": 34962
  },
  {
   "buffer": 0,
   "byteOffset": 5400,
   "byteLength": 864,
   "target": 34962
  },
  {
   "buffer": 0,
   "byteOffset": 6264,
   "byteLength": 216,
   "target": 34963
  },
  {
   "buffer": 0,
   "byteOffset": 6480,
   "byteLength": 864,
   "target": 34962
  },
  {
   "buffer": 0,
   "byteOffset": 7344,
   "byteLength": 864,
   "target": 34962
  },
  {
   "buffer": 0,
   "byteOffset": 8208,
   "byteLength": 216,
   "target": 34963
  },
  {
   "buffer": 0,
   "byteOffset": 8424,
   "byteLength": 288,
   "target": 34962
  },
  {
   "buffer": 0,
   "byteOffset": 8712,
   "byteLength": 288,
   "target": 34962
  },
  {
   "buffer": 0,
   "byteOffset": 9000,
   "byteLength": 72,
   "target": 34963
  },
  {
   "buffer": 0,
   "byteOffset": 9072,
   "byteLength": 288,
   "target": 34962
  },
  {
   "buffer": 0,
   "byteOffset": 9360,
   "byteLength": 288,
   "target": 34962
  },
  {
   "buffer": 0,
   "byteOffset": 9648,
   "byteLength": 72,
   "target": 34963
  },
  {
   "buffer": 0,
   "byteOffset": 9720,
   "byteLength": 288,
   "target": 34962
  },
  {
   "buffer": 0,
   "byteOffset": 10008,
   "byteLength": 288,
   "target": 34962
  },
  {
   "buffer": 0,
   "byteOffset": 10296,
   "byteLength": 72,
   "target": 34963
  },
  {
   "buffer": 0,
   "byteOffset": 10368,
   "byteLength": 288,
   "target": 34962
  },
  {
   "buffer": 0,
   "byteOffset": 10656,
   "byteLength": 288,
   "target": 34962
  },
  {
   "buffer": 0,
   "byteOffset": 10944,
   "byteLength": 72,
   "target": 34963
  },
  {
   "buffer": 0,
   "byteOffset": 11016,
   "byteLength": 288,
   "target": 34962
  },
  {
   "buffer": 0,
   "byteOffset": 11304,
   "byteLength": 288,
   "target": 34962
  },
  {
   "buffer": 0,
   "byteOffset": 11592,
   "byteLength": 72,
   "target": 34963
  },
  {
   "buffer": 0,
   "byteOffset": 11664,
   "byteLength": 288,
   "target": 34962
  },
  {
   "buffer": 0,
   "byteOffset": 11952,
   "byteLength": 288,
   "target": 34962
  },
  {
   "buffer": 0,
   "byteOffset": 12240,
   "byteLength": 72,
   "target": 34963
  }
 ],
 "accessors": [
  {
   "bufferView": 0,
   "componentType": 5126,
   "count": 24,
   "type": "VEC3",
   "min": [
    -2.75,
    0,
    -2.75
   ],
   "max": [
    2.75,
    0.2,
    2.75
   ]
  },
  {
   "bufferView": 1,
   "componentType": 5126,
   "count": 24,
   "type": "VEC3"
  },
  {
   "bufferView": 2,
   "componentType": 5123,
   "count": 36,
   "type": "SCALAR"
  },
  {
   "bufferView": 3,
   "componentType": 5126,
   "count": 72,
   "type": "VEC3",
   "min": [
    -0.8,
    0.05,
    -2.3
   ],
   "max": [
    0.8,
    1.35,
    2.3
   ]
  },
  {
   "bufferView": 4,
   "componentType": 5126,
   "count": 72,
   "type": "VEC3"
  },
  {
   "bufferView": 5,
   "componentType": 5123,
   "count": 108,
   "type": "SCALAR"
  },
  {
   "bufferView": 6,
   "componentType": 5126,
   "count": 72,
   "type": "VEC3",
   "min": [
    -0.55,
    1,
    -2.1
   ],
   "max": [
    0.55,
    2.2,
    2.1
   ]
  },
  {
   "bufferView": 7,
   "componentType": 5126,
   "count": 72,
   "type": "VEC3"
  },
  {
   "bufferView": 8,
   "componentType": 5123,
   "count": 108,
   "type": "SCALAR"
  },
  {
   "bufferView": 9,
   "componentType": 5126,
   "count": 72,
   "type": "VEC3",
   "min": [
    -0.35,
    1.9,
    -1.9500000000000002
   ],
   "max": [
    0.35,
    2.9,
    1.9500000000000002
   ]
  },
  {
   "bufferView": 10,
   "componentType": 5126,
   "count": 72,
   "type": "VEC3"
  },
  {
   "bufferView": 11,
   "componentType": 5123,
   "count": 108,
   "type": "SCALAR"
  },
  {
   "bufferView": 12,
   "componentType": 5126,
   "count": 72,
   "type": "VEC3",
   "min": [
    -0.2,
    2.6,
    -1.8
   ],
   "max": [
    0.2,
    3.4000000000000004,
    1.8
   ]
  },
  {
   "bufferView": 13,
   "componentType": 5126,
   "count": 72,
   "type": "VEC3"
  },
  {
   "bufferView": 14,
   "componentType": 5123,
   "count": 108,
   "type": "SCALAR"
  },
  {
   "bufferView": 15,
   "componentType": 5126,
   "count": 24,
   "type": "VEC3",
   "min": [
    -1.2000000000000002,
    2.4,
    -1.7
   ],
   "max": [
    2,
    4.6,
    1.7
   ]
  },
  {
   "bufferView": 16,
   "componentType": 5126,
   "count": 24,
   "type": "VEC3"
  },
  {
   "bufferView": 17,
   "componentType": 5123,
   "count": 36,
   "type": "SCALAR"
  },
  {
   "bufferView": 18,
   "componentType": 5126,
   "count": 24,
   "type": "VEC3",
   "min": [
    -1.0999999999999999,
    4.4,
    -1.9999999999999998
   ],
   "max": [
    3.5,
    6.800000000000001,
    2.5999999999999996
   ]
  },
  {
   "bufferView": 19,
   "componentType": 5126,
   "count": 24,
   "type": "VEC3"
  },
  {
   "bufferView": 20,
   "componentType": 5123,
   "count": 36,
   "type": "SCALAR"
  },
  {
   "bufferView": 21,
   "componentType": 5126,
   "count": 24,
   "type": "VEC3",
   "min": [
    -0.3999999999999999,
    6.6,
    -2.3
   ],
   "max": [
    5.6,
    9.2,
    3.7
   ]
  },
  {
   "bufferView": 22,
   "componentType": 5126,
   "count": 24,
   "type": "VEC3"
  },
  {
   "bufferView": 23,
   "componentType": 5123,
   "count": 36,
   "type": "SCALAR"
  },
  {
   "bufferView": 24,
   "componentType": 5126,
   "count": 24,
   "type": "VEC3",
   "min": [
    0.8999999999999995,
    9,
    -2.5
   ],
   "max": [
    8.3,
    11.8,
    4.7
   ]
  },
  {
   "bufferView": 25,
   "componentType": 5126,
   "count": 24,
   "type": "VEC3"
  },
  {
   "bufferView": 26,
   "componentType": 5123,
   "count": 36,
   "type": "SCALAR"
  },
  {
   "bufferView": 27,
   "componentType": 5126,
   "count": 24,
   "type": "VEC3",
   "min": [
    2.9000000000000004,
    11.6,
    -2.6
   ],
   "max": [
    11.5,
    14.6,
    5.800000000000001
   ]
  },
  {
   "bufferView": 28,
   "componentType": 5126,
   "count": 24,
   "type": "VEC3"
  },
  {
   "bufferView": 29,
   "componentType": 5123,
   "count": 36,
   "type": "SCALAR"
  },
  {
   "bufferView": 30,
   "componentType": 5126,
   "count": 24,
   "type": "VEC3",
   "min": [
    5.7,
    14.4,
    -2.5999999999999996
   ],
   "max": [
    15.3,
    17.6,
    6.6
   ]
  },
  {
   "bufferView": 31,
   "componentType": 5126,
   "count": 24,
   "type": "VEC3"
  },
  {
   "bufferView": 32,
   "componentType": 5123,
   "count": 36,
   "type": "SCALAR"
  }
 ]
}