{
 "asset": {
  "version": "2.0",
  "generator": "AED model builder",
  "minVersion": "2.0"
 },
 "extensionsUsed": [],
 "extensionsRequired": [],
 "scene": 0,
 "scenes": [
  {
   "nodes": [
    0
   ]
  }
 ],
 "nodes": [
  {
   "mesh": 0,
   "name": "AED_Cordon"
  }
 ],
 "meshes": [
  {
   "name": "AED_Cordon",
   "primitives": [
    {
     "attributes": {
      "POSITION": 0,
      "NORMAL": 1
     },
     "indices": 2,
     "material": 0,
     "mode": 4
    },
    {
     "attributes": {
      "POSITION": 3,
      "NORMAL": 4
     },
     "indices": 5,
     "material": 1,
     "mode": 4
    },
    {
     "attributes": {
      "POSITION": 6,
      "NORMAL": 7
     },
     "indices": 8,
     "material": 2,
     "mode": 4
    }
   ]
  }
 ],
 "materials": [
  {
   "name": "AED_Cordon_m0",
   "pbrMetallicRoughness": {
    "baseColorFactor": [
     0.25,
     0.25,
     0.27,
     1
    ],
    "metallicFactor": 0,
    "roughnessFactor": 0.85
   },
   "doubleSided": true,
   "alphaMode": "OPAQUE"
  },
  {
   "name": "AED_Cordon_m1",
   "pbrMetallicRoughness": {
    "baseColorFactor": [
     0.06,
     0.12,
     0.5,
     1
    ],
    "metallicFactor": 0,
    "roughnessFactor": 0.85
   },
   "doubleSided": true,
   "alphaMode": "OPAQUE"
  },
  {
   "name": "AED_Cordon_m2",
   "pbrMetallicRoughness": {
    "baseColorFactor": [
     0.98,
     0.72,
     0.05,
     1
    ],
    "metallicFactor": 0,
    "roughnessFactor": 0.85
   },
   "doubleSided": true,
   "alphaMode": "OPAQUE"
  }
 ],
 "buffers": [
  {
   "uri": "AED_Cordon.bin",
   "byteLength": 2592
  }
 ],
 "bufferViews": [
  {
   "buffer": 0,
   "byteOffset": 0,
   "byteLength": 576,
   "target": 34962
  },
  {
   "buffer": 0,
   "byteOffset": 576,
   "byteLength": 576,
   "target": 34962
  },
  {
   "buffer": 0,
   "byteOffset": 1152,
   "byteLength": 144,
   "target": 34963
  },
  {
   "buffer": 0,
   "byteOffset": 1296,
   "byteLength": 288,
   "target": 34962
  },
  {
   "buffer": 0,
   "byteOffset": 1584,
   "byteLength": 288,
   "target": 34962
  },
  {
   "buffer": 0,
   "byteOffset": 1872,
   "byteLength": 72,
   "target": 34963
  },
  {
   "buffer": 0,
   "byteOffset": 1944,
   "byteLength": 288,
   "target": 34962
  },
  {
   "buffer": 0,
   "byteOffset": 2232,
   "byteLength": 288,
   "target": 34962
  },
  {
   "buffer": 0,
   "byteOffset": 2520,
   "byteLength": 72,
   "target": 34963
  }
 ],
 "accessors": [
  {
   "bufferView": 0,
   "componentType": 5126,
   "count": 48,
   "type": "VEC3",
   "min": [
    -0.225,
    0,
    -0.225
   ],
   "max": [
    0.225,
    0.95,
    0.225
   ]
  },
  {
   "bufferView": 1,
   "componentType": 5126,
   "count": 48,
   "type": "VEC3"
  },
  {
   "bufferView": 2,
   "componentType": 5123,
   "count": 72,
   "type": "SCALAR"
  },
  {
   "bufferView": 3,
   "componentType": 5126,
   "count": 24,
   "type": "VEC3",
   "min": [
    -0.030000000000000027,
    0.82,
    -0.015
   ],
   "max": [
    0.87,
    0.9099999999999999,
    0.015
   ]
  },
  {
   "bufferView": 4,
   "componentType": 5126,
   "count": 24,
   "type": "VEC3"
  },
  {
   "bufferView": 5,
   "componentType": 5123,
   "count": 36,
   "type": "SCALAR"
  },
  {
   "bufferView": 6,
   "componentType": 5126,
   "count": 24,
   "type": "VEC3",
   "min": [
    -0.075,
    1,
    -0.075
   ],
   "max": [
    0.075,
    1.15,
    0.075
   ]
  },
  {
   "bufferView": 7,
   "componentType": 5126,
   "count": 24,
   "type": "VEC3"
  },
  {
   "bufferView": 8,
   "componentType": 5123,
   "count": 36,
   "type": "SCALAR"
  }
 ]
}